<svg width="19" height="19" viewBox="0 0 19 19" fill="none" xmlns="http://www.w3.org/2000/svg">
<path d="M10.5302 8.28735L7.53018 8.27646C7.13236 8.27502 6.7514 8.1156 6.47112 7.83328C6.19084 7.55096 6.03419 7.16885 6.03563 6.77103C6.03708 6.37321 6.19649 5.99225 6.47882 5.71197C6.76114 5.43169 7.14324 5.27504 7.54106 5.27648L11.291 5.29009C11.49 5.29081 11.6804 5.37052 11.8206 5.51168C11.9607 5.65284 12.039 5.84389 12.0383 6.0428C12.0376 6.24171 12.1159 6.43276 12.2561 6.57393C12.3962 6.71509 12.5867 6.7948 12.7856 6.79552C12.9845 6.79624 13.1756 6.71792 13.3167 6.57777C13.4579 6.43763 13.5376 6.24716 13.5383 6.04824C13.5405 5.45151 13.3055 4.87836 12.8851 4.45487C12.4646 4.03139 11.8932 3.79226 11.2965 3.7901L9.79649 3.78466L9.80193 2.28467C9.80265 2.08575 9.72433 1.8947 9.58419 1.75354C9.44405 1.61238 9.25357 1.53267 9.05466 1.53195C8.85575 1.53123 8.6647 1.60955 8.52353 1.74969C8.38237 1.88984 8.30266 2.08031 8.30194 2.27922L8.2965 3.77921L7.54651 3.77649C6.75086 3.77361 5.98666 4.08691 5.42201 4.64747C4.85736 5.20804 4.53853 5.96995 4.53564 6.76559C4.53276 7.56123 4.84606 8.32544 5.40662 8.89008C5.96718 9.45473 6.72909 9.77357 7.52474 9.77645L10.5247 9.78734C10.9225 9.78878 11.3035 9.9482 11.5838 10.2305C11.8641 10.5128 12.0207 10.8949 12.0193 11.2928C12.0178 11.6906 11.8584 12.0715 11.5761 12.3518C11.2938 12.6321 10.9117 12.7888 10.5138 12.7873L6.76386 12.7737C6.56495 12.773 6.37447 12.6933 6.23433 12.5521C6.09419 12.411 6.01586 12.2199 6.01659 12.021C6.01731 11.8221 5.93898 11.631 5.79884 11.4899C5.6587 11.3487 5.46822 11.269 5.26931 11.2683C5.0704 11.2676 4.87935 11.3459 4.73819 11.486C4.59703 11.6262 4.51732 11.8166 4.5166 12.0156C4.51443 12.6123 4.74941 13.1854 5.16983 13.6089C5.59025 14.0324 6.16169 14.2715 6.75842 14.2737L8.25841 14.2791L8.25297 15.7791C8.25225 15.978 8.33057 16.1691 8.47071 16.3103C8.61085 16.4514 8.80133 16.5311 9.00024 16.5319C9.19915 16.5326 9.3902 16.4542 9.53137 16.3141C9.67253 16.174 9.75224 15.9835 9.75296 15.7846L9.7584 14.2846L10.5084 14.2873C11.304 14.2902 12.0682 13.9769 12.6329 13.4163C13.1975 12.8558 13.5164 12.0939 13.5193 11.2982C13.5221 10.5026 13.2088 9.73836 12.6483 9.17372C12.0877 8.60907 11.3258 8.29023 10.5302 8.28735Z" fill="#525252"/>
</svg>
