<svg width="19" height="19" viewBox="0 0 19 19" fill="none" xmlns="http://www.w3.org/2000/svg">
<path d="M5.05285 3.51451L11.0528 3.53627C12.9858 3.54329 14.5471 5.11596 14.5401 7.04895L14.5183 13.0489C14.5113 14.9819 12.9386 16.5432 11.0056 16.5362L5.00569 16.5144C3.0727 16.5074 1.51139 14.9347 1.51841 13.0017L1.54017 7.00179L1.54571 6.82212C1.64273 5.0325 3.08286 3.60277 4.87314 3.51874L5.05285 3.51451Z" stroke="#E0E0E0"/>
<path d="M3.04799 5.00779C3.056 2.79866 4.85335 1.01431 7.06247 1.02232L13.0624 1.04409C15.2716 1.0521 17.0559 2.84945 17.0479 5.05857L17.0261 11.0585C17.0181 13.2677 15.2208 15.052 13.0116 15.044L7.01169 15.0222C4.80256 15.0142 3.01821 13.2169 3.02622 11.0077L3.04799 5.00779Z" fill="#525252"/>
</svg>
