<svg width="18" height="18" viewBox="0 0 18 18" fill="none" xmlns="http://www.w3.org/2000/svg">
<path d="M3.2924 14.9062L3.29946 12.9602C3.30206 12.2438 3.89294 11.6651 4.61923 11.6677L13.989 11.7017C14.7153 11.7043 15.302 12.2873 15.2994 13.0038L15.2923 14.9497M3.33594 2.90625L3.32888 4.85218C3.32628 5.56866 3.91294 6.15161 4.63923 6.15424L9.32413 6.17124L14.009 6.18823C14.7353 6.19087 15.3262 5.61219 15.3288 4.89572L15.3359 2.94978M3.31417 8.90625L3.35422 8.9064M6.2641 8.91695L6.30414 8.9171M9.29411 8.92795L9.33415 8.92809M12.2841 8.93879L12.3241 8.93894M15.274 8.94964L15.3141 8.94978" stroke="#8C8C8C" stroke-linecap="round" stroke-linejoin="round"/>
</svg>
