<svg width="19" height="19" viewBox="0 0 19 19" fill="none" xmlns="http://www.w3.org/2000/svg">
<path d="M2.0039 16.0077L2.01214 13.7375C2.01517 12.9016 2.70453 12.2265 3.55186 12.2295L14.4833 12.2692C15.3306 12.2723 16.0151 12.9524 16.012 13.7883L16.0038 16.0585M2.05469 2.00781L2.04645 4.27807C2.04342 5.11395 2.72786 5.79406 3.5752 5.79714L14.5066 5.83679C15.354 5.83987 16.0433 5.16474 16.0464 4.32886L16.0546 2.0586M2.02929 9.00781L2.07601 9.00798M5.47087 9.0203L5.51759 9.02047M9.00589 9.03312L9.05261 9.03329M12.4942 9.04578L12.5409 9.04595M15.9825 9.05843L16.0292 9.0586" stroke="#525252" stroke-width="1.2" stroke-linecap="round" stroke-linejoin="round"/>
</svg>
