<svg width="19" height="19" viewBox="0 0 19 19" fill="none" xmlns="http://www.w3.org/2000/svg">
<path d="M2.68133 14.0694C2.44616 14.3028 2.44479 14.6827 2.67825 14.9179C2.91171 15.1531 3.29161 15.1544 3.52677 14.921L2.68133 14.0694ZM6.49127 11.1324L6.91707 10.7097C6.68361 10.4745 6.30371 10.4732 6.06855 10.7066L6.49127 11.1324ZM8.17264 12.826L7.74684 13.2488C7.9803 13.4839 8.3602 13.4853 8.59536 13.2518L8.17264 12.826ZM11.9833 9.04297L12.4091 8.62025C12.1756 8.38508 11.7957 8.38371 11.5605 8.61717L11.9833 9.04297ZM14.9202 12.8529C15.1537 13.0881 15.5336 13.0895 15.7687 12.856C16.0039 12.6225 16.0053 12.2426 15.7718 12.0075L14.9202 12.8529ZM3.10405 14.4952L3.52677 14.921L6.91399 11.5582L6.49127 11.1324L6.06855 10.7066L2.68133 14.0694L3.10405 14.4952ZM6.49127 11.1324L6.06547 11.5552L7.74684 13.2488L8.17264 12.826L8.59844 12.4033L6.91707 10.7097L6.49127 11.1324ZM8.17264 12.826L8.59536 13.2518L12.406 9.46877L11.9833 9.04297L11.5605 8.61717L7.74992 12.4002L8.17264 12.826ZM11.9833 9.04297L11.5575 9.46569L14.9202 12.8529L15.346 12.4302L15.7718 12.0075L12.4091 8.62025L11.9833 9.04297ZM4.83592 2.267L4.83374 2.86699L13.2712 2.8976L13.2734 2.2976L13.2755 1.69761L4.8381 1.667L4.83592 2.267ZM15.7954 4.83802L15.1954 4.83584L15.1648 13.2733L15.7648 13.2755L16.3648 13.2776L16.3954 4.8402L15.7954 4.83802ZM13.2244 15.7975L13.2266 15.1975L4.78912 15.1669L4.78695 15.7669L4.78477 16.3669L13.2222 16.3975L13.2244 15.7975ZM2.2649 13.2265L2.86489 13.2287L2.8955 4.79122L2.2955 4.78905L1.69551 4.78687L1.6649 13.2243L2.2649 13.2265ZM4.78695 15.7669L4.78912 15.1669C3.72253 15.163 2.86102 14.2953 2.86489 13.2287L2.2649 13.2265L1.6649 13.2243C1.65863 14.9536 3.05544 16.3606 4.78477 16.3669L4.78695 15.7669ZM15.7648 13.2755L15.1648 13.2733C15.1609 14.3399 14.2932 15.2014 13.2266 15.1975L13.2244 15.7975L13.2222 16.3975C14.9515 16.4038 16.3585 15.007 16.3648 13.2776L15.7648 13.2755ZM13.2734 2.2976L13.2712 2.8976C14.3378 2.90147 15.1993 3.76925 15.1954 4.83584L15.7954 4.83802L16.3954 4.8402C16.4017 3.11087 15.0049 1.70388 13.2755 1.69761L13.2734 2.2976ZM4.83592 2.267L4.8381 1.667C3.10877 1.66073 1.70178 3.05754 1.69551 4.78687L2.2955 4.78905L2.8955 4.79122C2.89937 3.72463 3.76715 2.86312 4.83374 2.86699L4.83592 2.267ZM7.35338 6.07303L6.75338 6.07085C6.75205 6.43846 6.45296 6.73539 6.08535 6.73406L6.08317 7.33405L6.081 7.93405C7.11135 7.93779 7.94964 7.10555 7.95338 6.0752L7.35338 6.07303ZM6.08317 7.33405L6.08535 6.73406C5.71774 6.73272 5.42081 6.43363 5.42214 6.06602L4.82215 6.06385L4.22215 6.06167C4.21841 7.09202 5.05065 7.93031 6.081 7.93405L6.08317 7.33405ZM4.82215 6.06385L5.42214 6.06602C5.42348 5.69841 5.72257 5.40148 6.09018 5.40282L6.09235 4.80282L6.09453 4.20282C5.06418 4.19909 4.22589 5.03132 4.22215 6.06167L4.82215 6.06385ZM6.09235 4.80282L6.09018 5.40282C6.45779 5.40415 6.75472 5.70324 6.75338 6.07085L7.35338 6.07303L7.95338 6.0752C7.95711 5.04486 7.12488 4.20656 6.09453 4.20282L6.09235 4.80282Z" fill="#525252"/>
</svg>
