<svg width="136" height="138" viewBox="0 0 136 138" fill="none" xmlns="http://www.w3.org/2000/svg">
<path d="M8.99237 119.969C7.82708 121.147 7.83723 123.047 9.01505 124.212C10.1929 125.377 12.0923 125.367 13.2576 124.189L8.99237 119.969ZM43.625 89.2298L45.7576 87.1199C45.1941 86.5503 44.4262 86.2298 43.625 86.2298C42.8238 86.2298 42.0559 86.5503 41.4924 87.1199L43.625 89.2298ZM59.875 105.655L57.7424 107.765C58.3059 108.334 59.0738 108.655 59.875 108.655C60.6762 108.655 61.4441 108.334 62.0076 107.765L59.875 105.655ZM96.4375 68.6989L98.5701 66.589C98.0066 66.0194 97.2387 65.6989 96.4375 65.6989C95.6363 65.6989 94.8684 66.0194 94.3049 66.589L96.4375 68.6989ZM126.805 103.658C127.97 104.836 129.87 104.846 131.047 103.681C132.225 102.516 132.235 100.616 131.07 99.4384L126.805 103.658ZM13.2576 124.189L45.7576 91.3398L41.4924 87.1199L8.99237 119.969L13.2576 124.189ZM41.4924 91.3398L57.7424 107.765L62.0076 103.545L45.7576 87.1199L41.4924 91.3398ZM62.0076 107.765L98.5701 70.8089L94.3049 66.589L57.7424 103.545L62.0076 107.765ZM94.3049 70.8089L126.805 103.658L131.07 99.4384L98.5701 66.589L94.3049 70.8089ZM27.375 6H108.625V0H27.375V6ZM130 27.6371V109.761H136V27.6371H130ZM108.625 131.398H27.375V137.398H108.625V131.398ZM6 109.761V27.6371H0V109.761H6ZM27.375 131.398C15.6001 131.398 6 121.741 6 109.761H0C0 124.994 12.226 137.398 27.375 137.398V131.398ZM130 109.761C130 121.741 120.4 131.398 108.625 131.398V137.398C123.774 137.398 136 124.994 136 109.761H130ZM108.625 6C120.4 6 130 15.6569 130 27.6371H136C136 12.4039 123.774 0 108.625 0V6ZM27.375 0C12.226 0 0 12.4039 0 27.6371H6C6 15.6569 15.6001 6 27.375 6V0ZM48.75 39.9556C48.75 45.1325 44.6064 49.2742 39.5625 49.2742V55.2742C47.9805 55.2742 54.75 48.3855 54.75 39.9556H48.75ZM39.5625 49.2742C34.5186 49.2742 30.375 45.1325 30.375 39.9556H24.375C24.375 48.3855 31.1445 55.2742 39.5625 55.2742V49.2742ZM30.375 39.9556C30.375 34.7788 34.5186 30.6371 39.5625 30.6371V24.6371C31.1445 24.6371 24.375 31.5258 24.375 39.9556H30.375ZM39.5625 30.6371C44.6064 30.6371 48.75 34.7788 48.75 39.9556H54.75C54.75 31.5258 47.9805 24.6371 39.5625 24.6371V30.6371Z" fill="#C4C4C4"/>
</svg>
