<svg width="19" height="19" viewBox="0 0 19 19" fill="none" xmlns="http://www.w3.org/2000/svg">
<path d="M2.05032 3.21288C2.05273 2.54734 2.57702 2.00971 3.22135 2.01204L9.05464 2.03321C9.69896 2.03554 10.2193 2.57697 10.2169 3.2425L10.1951 9.26784C10.1927 9.93339 9.66836 10.471 9.02404 10.4687L3.19074 10.4475C2.54642 10.4452 2.02604 9.90376 2.02846 9.23821L2.05032 3.21288Z" fill="#525252"/>
<rect x="2.36435" y="12.3591" width="13.3" height="0.7" rx="0.35" transform="rotate(0.207854 2.36435 12.3591)" stroke="#525252" stroke-width="0.7"/>
<rect x="11.0312" y="8.03906" width="5" height="1.4" rx="0.7" transform="rotate(0.207854 11.0312 8.03906)" fill="#525252"/>
<rect x="11.0547" y="2.03906" width="5" height="1.4" rx="0.7" transform="rotate(0.207854 11.0547 2.03906)" fill="#525252"/>
<rect x="11.0469" y="5.03906" width="5" height="1.4" rx="0.7" transform="rotate(0.207854 11.0469 5.03906)" fill="#525252"/>
<rect x="2.35654" y="15.3591" width="13.3" height="0.7" rx="0.35" transform="rotate(0.207854 2.35654 15.3591)" stroke="#525252" stroke-width="0.7"/>
</svg>
