<svg width="18" height="18" viewBox="0 0 18 18" fill="none" xmlns="http://www.w3.org/2000/svg">
<g clip-path="url(#clip0_8204_21949)">
<path d="M3.04143 4.43749C3.04288 4.03967 3.20229 3.65871 3.48462 3.37843C3.76694 3.09815 4.14904 2.9415 4.54687 2.94294L13.5468 2.97559C13.9446 2.97703 14.3256 3.13645 14.6059 3.41878C14.8861 3.7011 15.0428 4.0832 15.0414 4.48102L15.0087 13.481C15.0073 13.8788 14.8478 14.2597 14.5655 14.54C14.2832 14.8203 13.9011 14.977 13.5033 14.9755L4.50333 14.9429C4.10551 14.9414 3.72456 14.782 3.44427 14.4997C3.16399 14.2174 3.00734 13.8353 3.00878 13.4374L3.04143 4.43749ZM14.2859 5.97829L11.2859 5.96741L11.2778 8.21739L14.2778 8.22828L14.2859 5.97829ZM14.275 8.97827L11.2751 8.96739L11.2669 11.2174L14.2669 11.2283L14.275 8.97827ZM14.2642 11.9783L11.2642 11.9674L11.256 14.2174L13.506 14.2255C13.7049 14.2262 13.896 14.1479 14.0371 14.0078C14.1783 13.8676 14.258 13.6772 14.2587 13.4782L14.2642 11.9783ZM10.506 14.2146L10.5142 11.9646L7.5142 11.9538L7.50603 14.2038L10.506 14.2146ZM6.75604 14.201L6.7642 11.951L3.76422 11.9402L3.75878 13.4402C3.75806 13.6391 3.83638 13.8301 3.97652 13.9713C4.11666 14.1124 4.30714 14.1921 4.50605 14.1929L6.75604 14.201ZM3.76694 11.1902L6.76692 11.201L6.77508 8.95106L3.7751 8.94018L3.76694 11.1902ZM3.77782 8.19019L6.7778 8.20107L6.78597 5.95108L3.78599 5.9402L3.77782 8.19019ZM7.53596 5.9538L7.5278 8.20379L10.5278 8.21467L10.5359 5.96469L7.53596 5.9538ZM10.5251 8.96467L7.52508 8.95378L7.51692 11.2038L10.5169 11.2147L10.5251 8.96467Z" fill="#8C8C8C"/>
</g>
<defs>
<clipPath id="clip0_8204_21949">
<rect width="12" height="12" fill="white" transform="translate(3.04688 2.9375) rotate(0.207854)"/>
</clipPath>
</defs>
</svg>
