<svg width="18" height="19" viewBox="0 0 18 19" fill="none" xmlns="http://www.w3.org/2000/svg">
<path d="M17.0221 7V11C17.0221 11.2652 16.9165 11.5196 16.7284 11.7071C16.5403 11.8946 16.2853 12 16.0193 12H1.97941C1.71344 12 1.45836 11.8946 1.27029 11.7071C1.08222 11.5196 0.976562 11.2652 0.976562 11V7C0.976562 6.73478 1.08222 6.48043 1.27029 6.29289C1.45836 6.10536 1.71344 6 1.97941 6H16.0193C16.2853 6 16.5403 6.10536 16.7284 6.29289C16.9165 6.48043 17.0221 6.73478 17.0221 7Z" stroke="#8C8C8C" stroke-linecap="round" stroke-linejoin="round"/>
<path d="M11.0075 16H6.99609" stroke="#8C8C8C" stroke-linecap="round" stroke-linejoin="round"/>
<path d="M8.99609 14V18" stroke="#8C8C8C" stroke-linecap="round" stroke-linejoin="round"/>
</svg>
