<svg width="19" height="19" viewBox="0 0 19 19" fill="none" xmlns="http://www.w3.org/2000/svg">
<g clip-path="url(#clip0_7352_36262)">
<path d="M2.04834 3.7578C2.05002 3.29368 2.23601 2.84923 2.56539 2.52223C2.89476 2.19524 3.34055 2.01248 3.80468 2.01416L14.3046 2.05225C14.7687 2.05394 15.2132 2.23992 15.5402 2.5693C15.8672 2.89868 16.0499 3.34446 16.0482 3.80859L16.0102 14.3085C16.0085 14.7726 15.8225 15.2171 15.4931 15.5441C15.1637 15.8711 14.7179 16.0538 14.2538 16.0522L3.75389 16.0141C3.28976 16.0124 2.84531 15.8264 2.51832 15.497C2.19132 15.1676 2.00856 14.7219 2.01025 14.2577L2.04834 3.7578ZM15.1669 5.5554L11.6669 5.54271L11.6574 8.16769L15.1574 8.18039L15.1669 5.5554ZM15.1542 9.05538L11.6542 9.04268L11.6447 11.6677L15.1447 11.6804L15.1542 9.05538ZM15.1415 12.5554L11.6415 12.5427L11.632 15.1676L14.257 15.1772C14.4891 15.178 14.7119 15.0866 14.8766 14.9231C15.0413 14.7596 15.1343 14.5374 15.1352 14.3053L15.1415 12.5554ZM10.757 15.1645L10.7665 12.5395L7.26656 12.5268L7.25704 15.1518L10.757 15.1645ZM6.38204 15.1486L6.39157 12.5236L2.89159 12.5109L2.88524 14.2609C2.8844 14.493 2.97578 14.7159 3.13928 14.8806C3.30278 15.0452 3.525 15.1382 3.75706 15.1391L6.38204 15.1486ZM2.89476 11.6359L6.39474 11.6486L6.40426 9.02364L2.90429 9.01094L2.89476 11.6359ZM2.90746 8.13595L6.40744 8.14864L6.41696 5.52366L2.91698 5.51096L2.90746 8.13595ZM7.29196 5.52684L7.28243 8.15182L10.7824 8.16451L10.7919 5.53953L7.29196 5.52684ZM10.7792 9.03951L7.27926 9.02681L7.26974 11.6518L10.7697 11.6645L10.7792 9.03951Z" fill="#525252"/>
</g>
<defs>
<clipPath id="clip0_7352_36262">
<rect width="14" height="14" fill="white" transform="translate(2.05469 2.00781) rotate(0.207854)"/>
</clipPath>
</defs>
</svg>
